<svg width="21" height="20" viewBox="0 0 21 20" fill="none" xmlns="http://www.w3.org/2000/svg">
<path fill-rule="evenodd" clip-rule="evenodd" d="M5.0395 2.32481C5.01043 1.00514 4.06672 0 2.53429 0C1.00185 0 0 1.00514 0 2.32481C0 3.61715 0.972242 4.65124 2.47614 4.65124H2.50477C4.06672 4.65124 5.0395 3.61715 5.0395 2.32481ZM4.74462 6.4884H0.265039V19.9477H4.74462V6.4884ZM15.7413 6.1717C18.6891 6.1717 20.899 8.09578 20.899 12.2299L20.8988 19.947H16.4194V12.7463C16.4194 10.9376 15.7712 9.70346 14.1495 9.70346C12.912 9.70346 12.1748 10.5355 11.8511 11.3391C11.7326 11.6271 11.7036 12.0284 11.7036 12.4306V19.9474H7.22344C7.22344 19.9474 7.28248 7.75106 7.22344 6.48811H11.7036V8.3945C12.2981 7.47807 13.3629 6.1717 15.7413 6.1717Z" fill="#752936"/>
</svg>
