<svg width="19" height="15" viewBox="0 0 19 15" fill="none" xmlns="http://www.w3.org/2000/svg">
<path fill-rule="evenodd" clip-rule="evenodd" d="M9.22558 3.99023L9.26677 4.63903L8.58034 4.55958C6.08175 4.25505 3.89891 3.22228 2.04555 1.48775L1.13947 0.627107L0.906084 1.26266C0.411856 2.67941 0.727613 4.1756 1.75725 5.18189C2.3064 5.738 2.18284 5.81745 1.23557 5.48643C0.906084 5.3805 0.617785 5.30106 0.590328 5.34078C0.494228 5.43347 0.823713 6.63837 1.08456 7.11503C1.4415 7.77706 2.16911 8.42586 2.96537 8.80983L3.63806 9.11437L2.84181 9.12761C2.07301 9.12761 2.04555 9.14085 2.12792 9.41891C2.4025 10.2795 3.48705 11.1932 4.69516 11.5904L5.54633 11.8684L4.80499 12.2921C3.70671 12.9012 2.41622 13.2455 1.12574 13.2719C0.507956 13.2852 0 13.3381 0 13.3779C0 13.5103 1.67488 14.2517 2.64961 14.543C5.57379 15.4037 9.04711 15.0329 11.6555 13.5632C13.5089 12.5172 15.3622 10.4384 16.2271 8.42586C16.6939 7.35336 17.1607 5.39374 17.1607 4.45366C17.1607 3.84459 17.2019 3.76514 17.9707 3.03691C18.4237 2.61321 18.8493 2.14978 18.9317 2.01738C19.069 1.7658 19.0552 1.7658 18.3551 1.9909C17.1881 2.38811 17.0234 2.33515 17.6 1.73932C18.0256 1.31562 18.5335 0.547663 18.5335 0.322572C18.5335 0.28285 18.3276 0.349054 18.0942 0.46822C17.8471 0.600626 17.298 0.799236 16.8861 0.918402L16.1448 1.14349L15.4721 0.706551C15.1014 0.468219 14.5797 0.203406 14.3051 0.123962C13.605 -0.0614069 12.5342 -0.0349255 11.9026 0.176925C10.1866 0.772755 9.10203 2.30867 9.22558 3.99023Z" fill="#752936"/>
</svg>
