<svg width="22" height="16" viewBox="0 0 22 16" fill="none" xmlns="http://www.w3.org/2000/svg">
<path fill-rule="evenodd" clip-rule="evenodd" d="M18.7797 1.05253C19.687 1.30148 20.4014 2.03501 20.6439 2.96652C21.0845 4.65478 21.0845 8.17735 21.0845 8.17735C21.0845 8.17735 21.0845 11.6998 20.6439 13.3882C20.4014 14.3197 19.687 15.0532 18.7797 15.3023C17.1356 15.7546 10.5423 15.7546 10.5423 15.7546C10.5423 15.7546 3.94892 15.7546 2.30468 15.3023C1.39745 15.0532 0.682971 14.3197 0.440499 13.3882C0 11.6998 0 8.17735 0 8.17735C0 8.17735 0 4.65478 0.440499 2.96652C0.682971 2.03501 1.39745 1.30148 2.30468 1.05253C3.94892 0.600098 10.5423 0.600098 10.5423 0.600098C10.5423 0.600098 17.1356 0.600098 18.7797 1.05253ZM8.5666 5.21245V11.8014L13.8377 8.50703L8.5666 5.21245Z" fill="#752936"/>
</svg>
